ffmpeg started on 2025-06-04 at 20:32:19
Report written to "D:\Convert\FFMetrics\reports\psnr_report-6.txt"
Log level: 32
Command line:
ffmpeg -hide_banner -nostdin -i "G:\\\xc0\xed\xe8\xec\xe5\\\xce\xed\xe3\xee\xe8\xed\xe3\xe8\\!_36_\xce\xf1\xe5\xed\xfc_2024\\DreamCast\\\xc4\xe5\xf2\xf1\xea\xe0\xff \xc4\xe5\xeb\xe8\xea\xee\\[DC] Delicos Nursery - 02_Telegram_HEVC.mkv" -i "G:\\\xc0\xed\xe8\xec\xe5\\\xce\xed\xe3\xee\xe8\xed\xe3\xe8\\!_36_\xce\xf1\xe5\xed\xfc_2024\\DreamCast\\\xc4\xe5\xf2\xf1\xea\xe0\xff \xc4\xe5\xeb\xe8\xea\xee\\[DC] Delicos Nursery - 02_Telegram.mp4" -lavfi "[0:v]settb=AVTB,setpts=PTS-STARTPTS,format=pix_fmts=yuv420p10,fps=24000/1001,scale=1920:1080:flags=bicubic[main];[1:v]settb=AVTB,setpts=PTS-STARTPTS,format=pix_fmts=yuv420p,fps=24000/1001,scale=1920:1080:flags=bicubic[ref];[main][ref]psnr=eof_action=endall:stats_file='D\\:/Convert/FFMetrics/logs/psnr_logfile-6.txt'" -f null -
Input #0, matroska,webm, from 'G:\Аниме\Онгоинги\!_36_Осень_2024\DreamCast\Детская Делико\[DC] Delicos Nursery - 02_Telegram_HEVC.mkv':
  Metadata:
    COMPATIBLE_BRANDS: isomiso2avc1mp41
    MAJOR_BRAND     : isom
    MINOR_VERSION   : 512
    ENCODER         : Lavf61.7.100
  Duration: 00:23:46.60, start: -0.021000, bitrate: 1479 kb/s
  Stream #0:0: Video: hevc (Main 10), yuv420p10le(tv, bt709, progressive), 1920x1080 [SAR 1:1 DAR 16:9], 23.98 fps, 23.98 tbr, 1k tbn (default)
      Metadata:
        HANDLER_NAME    : VideoHandler
        VENDOR_ID       : [0][0][0][0]
        ENCODER         : Lavc61.19.100 libx265
        BPS             : 1282890
        DURATION        : 00:23:46.508708333
        NUMBER_OF_FRAMES: 34202
        NUMBER_OF_BYTES : 228756680
        _STATISTICS_WRITING_APP: mkvpropedit v66.0.0 ('Josie') 64-bit
        _STATISTICS_WRITING_DATE_UTC: 2025-05-30 11:50:17
        _STATISTICS_TAGS: BPS DURATION NUMBER_OF_FRAMES NUMBER_OF_BYTES
  Stream #0:1: Audio: aac (LC), 48000 Hz, stereo, fltp (default)
      Metadata:
        HANDLER_NAME    : SoundHandler
        VENDOR_ID       : [0][0][0][0]
        ENCODER         : Lavc61.19.100 aac
        BPS             : 192904
        DURATION        : 00:23:46.602000000
        NUMBER_OF_FRAMES: 66873
        NUMBER_OF_BYTES : 34399729
        _STATISTICS_WRITING_APP: mkvpropedit v66.0.0 ('Josie') 64-bit
        _STATISTICS_WRITING_DATE_UTC: 2025-05-30 11:50:17
        _STATISTICS_TAGS: BPS DURATION NUMBER_OF_FRAMES NUMBER_OF_BYTES
Input #1, mov,mp4,m4a,3gp,3g2,mj2, from 'G:\Аниме\Онгоинги\!_36_Осень_2024\DreamCast\Детская Делико\[DC] Delicos Nursery - 02_Telegram.mp4':
  Metadata:
    major_brand     : isom
    minor_version   : 512
    compatible_brands: isomiso2avc1mp41
    encoder         : Lavf61.1.100
  Duration: 00:23:46.57, start: 0.000000, bitrate: 3816 kb/s
  Stream #1:0[0x1](und): Video: h264 (High) (avc1 / 0x31637661), yuv420p(tv, bt709, progressive), 1920x1080 [SAR 1:1 DAR 16:9], 3668 kb/s, 23.98 fps, 23.98 tbr, 24k tbn (default)
      Metadata:
        handler_name    : VideoHandler
        vendor_id       : [0][0][0][0]
        encoder         : Lavc61.3.100 h264_qsv
  Stream #1:1[0x2](und): Audio: aac (HE-AACv2) (mp4a / 0x6134706D), 48000 Hz, stereo, fltp, 144 kb/s (default)
      Metadata:
        handler_name    : SoundHandler
        vendor_id       : [0][0][0][0]
Stream mapping:
  Stream #0:0 (hevc) -> settb:default
  Stream #1:0 (h264) -> settb:default
  psnr:default -> Stream #0:0 (wrapped_avframe)
  Stream #0:1 -> #0:1 (aac (native) -> pcm_s16le (native))
Output #0, null, to 'pipe:':
  Metadata:
    COMPATIBLE_BRANDS: isomiso2avc1mp41
    MAJOR_BRAND     : isom
    MINOR_VERSION   : 512
    encoder         : Lavf61.7.100
  Stream #0:0: Video: wrapped_avframe, yuv420p10le(tv, bt709, progressive), 1920x1080 [SAR 1:1 DAR 16:9], q=2-31, 200 kb/s, 23.98 fps, 23.98 tbn
      Metadata:
        encoder         : Lavc61.19.100 wrapped_avframe
  Stream #0:1: Audio: pcm_s16le, 48000 Hz, stereo, s16, 1536 kb/s (default)
      Metadata:
        HANDLER_NAME    : SoundHandler
        VENDOR_ID       : [0][0][0][0]
        _STATISTICS_TAGS: BPS DURATION NUMBER_OF_FRAMES NUMBER_OF_BYTES
        BPS             : 192904
        DURATION        : 00:23:46.602000000
        NUMBER_OF_FRAMES: 66873
        NUMBER_OF_BYTES : 34399729
        _STATISTICS_WRITING_APP: mkvpropedit v66.0.0 ('Josie') 64-bit
        _STATISTICS_WRITING_DATE_UTC: 2025-05-30 11:50:17
        encoder         : Lavc61.19.100 pcm_s16le
frame=  154 fps=0.0 q=-0.0 size=N/A time=00:00:06.42 bitrate=N/A speed=12.4x    frame=  354 fps=345 q=-0.0 size=N/A time=00:00:14.76 bitrate=N/A speed=14.4x    frame=  569 fps=367 q=-0.0 size=N/A time=00:00:23.73 bitrate=N/A speed=15.3x    frame=  794 fps=384 q=-0.0 size=N/A time=00:00:33.11 bitrate=N/A speed=  16x    frame= 1037 fps=403 q=-0.0 size=N/A time=00:00:43.25 bitrate=N/A speed=16.8x    frame= 1273 fps=411 q=-0.0 size=N/A time=00:00:53.09 bitrate=N/A speed=17.2x    frame= 1457 fps=404 q=-0.0 size=N/A time=00:01:00.76 bitrate=N/A speed=16.9x    frame= 1673 fps=405 q=-0.0 size=N/A time=00:01:09.77 bitrate=N/A speed=16.9x    frame= 1929 fps=416 q=-0.0 size=N/A time=00:01:20.45 bitrate=N/A speed=17.3x    frame= 2154 fps=417 q=-0.0 size=N/A time=00:01:29.83 bitrate=N/A speed=17.4x    frame= 2349 fps=414 q=-0.0 size=N/A time=00:01:37.97 bitrate=N/A speed=17.3x    frame= 2539 fps=411 q=-0.0 size=N/A time=00:01:45.89 bitrate=N/A speed=17.1x    frame= 2734 fps=408 q=-0.0 size=N/A time=00:01:54.03 bitrate=N/A speed=  17x    frame= 2926 fps=406 q=-0.0 size=N/A time=00:02:02.03 bitrate=N/A speed=16.9x    frame= 3147 fps=407 q=-0.0 size=N/A time=00:02:11.25 bitrate=N/A speed=  17x    frame= 3334 fps=404 q=-0.0 size=N/A time=00:02:19.05 bitrate=N/A speed=16.9x    frame= 3496 fps=399 q=-0.0 size=N/A time=00:02:25.81 bitrate=N/A speed=16.6x    frame= 3666 fps=395 q=-0.0 size=N/A time=00:02:32.90 bitrate=N/A speed=16.5x    frame= 3872 fps=395 q=-0.0 size=N/A time=00:02:41.49 bitrate=N/A speed=16.5x    frame= 4059 fps=394 q=-0.0 size=N/A time=00:02:49.29 bitrate=N/A speed=16.4x    frame= 4249 fps=393 q=-0.0 size=N/A time=00:02:57.21 bitrate=N/A speed=16.4x    frame= 4462 fps=393 q=-0.0 size=N/A time=00:03:06.10 bitrate=N/A speed=16.4x    frame= 4692 fps=396 q=-0.0 size=N/A time=00:03:15.69 bitrate=N/A speed=16.5x    frame= 4897 fps=396 q=-0.0 size=N/A time=00:03:24.24 bitrate=N/A speed=16.5x    frame= 5114 fps=397 q=-0.0 size=N/A time=00:03:33.29 bitrate=N/A speed=16.5x    frame= 5331 fps=397 q=-0.0 size=N/A time=00:03:42.34 bitrate=N/A speed=16.6x    frame= 5567 fps=400 q=-0.0 size=N/A time=00:03:52.19 bitrate=N/A speed=16.7x    frame= 5818 fps=402 q=-0.0 size=N/A time=00:04:02.65 bitrate=N/A speed=16.8x    frame= 6059 fps=405 q=-0.0 size=N/A time=00:04:12.71 bitrate=N/A speed=16.9x    frame= 6297 fps=407 q=-0.0 size=N/A time=00:04:22.63 bitrate=N/A speed=  17x    frame= 6530 fps=408 q=-0.0 size=N/A time=00:04:32.35 bitrate=N/A speed=  17x    frame= 6783 fps=410 q=-0.0 size=N/A time=00:04:42.90 bitrate=N/A speed=17.1x    frame= 7017 fps=412 q=-0.0 size=N/A time=00:04:52.70 bitrate=N/A speed=17.2x    frame= 7268 fps=414 q=-0.0 size=N/A time=00:05:03.13 bitrate=N/A speed=17.3x    frame= 7475 fps=414 q=-0.0 size=N/A time=00:05:11.76 bitrate=N/A speed=17.3x    frame= 7734 fps=416 q=-0.0 size=N/A time=00:05:22.57 bitrate=N/A speed=17.4x    frame= 7948 fps=416 q=-0.0 size=N/A time=00:05:31.49 bitrate=N/A speed=17.3x    frame= 8173 fps=417 q=-0.0 size=N/A time=00:05:40.88 bitrate=N/A speed=17.4x    frame= 8414 fps=418 q=-0.0 size=N/A time=00:05:50.93 bitrate=N/A speed=17.4x    frame= 8637 fps=418 q=-0.0 size=N/A time=00:06:00.23 bitrate=N/A speed=17.4x    frame= 8853 fps=418 q=-0.0 size=N/A time=00:06:09.24 bitrate=N/A speed=17.4x    frame= 9077 fps=419 q=-0.0 size=N/A time=00:06:18.58 bitrate=N/A speed=17.5x    frame= 9300 fps=419 q=-0.0 size=N/A time=00:06:27.88 bitrate=N/A speed=17.5x    frame= 9527 fps=419 q=-0.0 size=N/A time=00:06:37.35 bitrate=N/A speed=17.5x    frame= 9768 fps=420 q=-0.0 size=N/A time=00:06:47.40 bitrate=N/A speed=17.5x    frame= 9993 fps=421 q=-0.0 size=N/A time=00:06:56.79 bitrate=N/A speed=17.5x    frame=10229 fps=422 q=-0.0 size=N/A time=00:07:06.63 bitrate=N/A speed=17.6x    frame=10450 fps=422 q=-0.0 size=N/A time=00:07:15.85 bitrate=N/A speed=17.6x    frame=10668 fps=422 q=-0.0 size=N/A time=00:07:24.94 bitrate=N/A speed=17.6x    frame=10917 fps=423 q=-0.0 size=N/A time=00:07:35.32 bitrate=N/A speed=17.6x    frame=11153 fps=424 q=-0.0 size=N/A time=00:07:45.17 bitrate=N/A speed=17.7x    frame=11365 fps=423 q=-0.0 size=N/A time=00:07:54.01 bitrate=N/A speed=17.7x    frame=11603 fps=424 q=-0.0 size=N/A time=00:08:03.94 bitrate=N/A speed=17.7x    frame=11854 fps=425 q=-0.0 size=N/A time=00:08:14.41 bitrate=N/A speed=17.7x    frame=12064 fps=425 q=-0.0 size=N/A time=00:08:23.16 bitrate=N/A speed=17.7x    frame=12269 fps=424 q=-0.0 size=N/A time=00:08:31.71 bitrate=N/A speed=17.7x    frame=12487 fps=424 q=-0.0 size=N/A time=00:08:40.81 bitrate=N/A speed=17.7x    frame=12668 fps=423 q=-0.0 size=N/A time=00:08:48.36 bitrate=N/A speed=17.6x    frame=12866 fps=422 q=-0.0 size=N/A time=00:08:56.61 bitrate=N/A speed=17.6x    frame=13041 fps=421 q=-0.0 size=N/A time=00:09:03.91 bitrate=N/A speed=17.6x    frame=13273 fps=422 q=-0.0 size=N/A time=00:09:13.59 bitrate=N/A speed=17.6x    frame=13510 fps=422 q=-0.0 size=N/A time=00:09:23.47 bitrate=N/A speed=17.6x    frame=13752 fps=423 q=-0.0 size=N/A time=00:09:33.57 bitrate=N/A speed=17.6x    frame=13983 fps=423 q=-0.0 size=N/A time=00:09:43.20 bitrate=N/A speed=17.7x    frame=14233 fps=424 q=-0.0 size=N/A time=00:09:53.63 bitrate=N/A speed=17.7x    frame=14458 fps=425 q=-0.0 size=N/A time=00:10:03.01 bitrate=N/A speed=17.7x    frame=14682 fps=425 q=-0.0 size=N/A time=00:10:12.36 bitrate=N/A speed=17.7x    frame=14925 fps=425 q=-0.0 size=N/A time=00:10:22.49 bitrate=N/A speed=17.7x    frame=15135 fps=425 q=-0.0 size=N/A time=00:10:31.25 bitrate=N/A speed=17.7x    frame=15372 fps=426 q=-0.0 size=N/A time=00:10:41.14 bitrate=N/A speed=17.7x    frame=15589 fps=426 q=-0.0 size=N/A time=00:10:50.19 bitrate=N/A speed=17.7x    frame=15800 fps=425 q=-0.0 size=N/A time=00:10:58.99 bitrate=N/A speed=17.7x    frame=16027 fps=425 q=-0.0 size=N/A time=00:11:08.45 bitrate=N/A speed=17.7x    frame=16226 fps=425 q=-0.0 size=N/A time=00:11:16.75 bitrate=N/A speed=17.7x    frame=16438 fps=425 q=-0.0 size=N/A time=00:11:25.60 bitrate=N/A speed=17.7x    frame=16631 fps=424 q=-0.0 size=N/A time=00:11:33.65 bitrate=N/A speed=17.7x    frame=16863 fps=424 q=-0.0 size=N/A time=00:11:43.32 bitrate=N/A speed=17.7x    frame=17101 fps=425 q=-0.0 size=N/A time=00:11:53.25 bitrate=N/A speed=17.7x    frame=17345 fps=425 q=-0.0 size=N/A time=00:12:03.43 bitrate=N/A speed=17.7x    frame=17564 fps=425 q=-0.0 size=N/A time=00:12:12.56 bitrate=N/A speed=17.7x    frame=17799 fps=426 q=-0.0 size=N/A time=00:12:22.36 bitrate=N/A speed=17.8x    frame=18030 fps=426 q=-0.0 size=N/A time=00:12:32.00 bitrate=N/A speed=17.8x    frame=18289 fps=427 q=-0.0 size=N/A time=00:12:42.80 bitrate=N/A speed=17.8x    frame=18537 fps=428 q=-0.0 size=N/A time=00:12:53.14 bitrate=N/A speed=17.8x    frame=18776 fps=428 q=-0.0 size=N/A time=00:13:03.11 bitrate=N/A speed=17.8x    frame=19038 fps=429 q=-0.0 size=N/A time=00:13:14.04 bitrate=N/A speed=17.9x    frame=19276 fps=429 q=-0.0 size=N/A time=00:13:23.96 bitrate=N/A speed=17.9x    frame=19525 fps=430 q=-0.0 size=N/A time=00:13:34.35 bitrate=N/A speed=17.9x    frame=19786 fps=431 q=-0.0 size=N/A time=00:13:45.24 bitrate=N/A speed=  18x    frame=20038 fps=431 q=-0.0 size=N/A time=00:13:55.75 bitrate=N/A speed=  18x    frame=20287 fps=432 q=-0.0 size=N/A time=00:14:06.13 bitrate=N/A speed=  18x    frame=20514 fps=432 q=-0.0 size=N/A time=00:14:15.60 bitrate=N/A speed=  18x    frame=20775 fps=433 q=-0.0 size=N/A time=00:14:26.49 bitrate=N/A speed=18.1x    frame=21023 fps=433 q=-0.0 size=N/A time=00:14:36.83 bitrate=N/A speed=18.1x    frame=21258 fps=434 q=-0.0 size=N/A time=00:14:46.63 bitrate=N/A speed=18.1x    frame=21479 fps=434 q=-0.0 size=N/A time=00:14:55.85 bitrate=N/A speed=18.1x    frame=21681 fps=433 q=-0.0 size=N/A time=00:15:04.27 bitrate=N/A speed=18.1x    frame=21848 fps=432 q=-0.0 size=N/A time=00:15:11.24 bitrate=N/A speed=  18x    frame=22096 fps=432 q=-0.0 size=N/A time=00:15:21.58 bitrate=N/A speed=  18x    frame=22342 fps=433 q=-0.0 size=N/A time=00:15:31.84 bitrate=N/A speed=18.1x    frame=22562 fps=433 q=-0.0 size=N/A time=00:15:41.02 bitrate=N/A speed=18.1x    frame=22784 fps=433 q=-0.0 size=N/A time=00:15:50.28 bitrate=N/A speed=18.1x    frame=23001 fps=433 q=-0.0 size=N/A time=00:15:59.33 bitrate=N/A speed=  18x    frame=23246 fps=433 q=-0.0 size=N/A time=00:16:09.55 bitrate=N/A speed=18.1x    frame=23446 fps=433 q=-0.0 size=N/A time=00:16:17.89 bitrate=N/A speed=  18x    frame=23671 fps=433 q=-0.0 size=N/A time=00:16:27.27 bitrate=N/A speed=  18x    frame=23893 fps=432 q=-0.0 size=N/A time=00:16:36.53 bitrate=N/A speed=  18x    frame=24117 fps=432 q=-0.0 size=N/A time=00:16:45.87 bitrate=N/A speed=  18x    frame=24368 fps=433 q=-0.0 size=N/A time=00:16:56.34 bitrate=N/A speed=18.1x    frame=24627 fps=434 q=-0.0 size=N/A time=00:17:07.15 bitrate=N/A speed=18.1x    frame=24877 fps=434 q=-0.0 size=N/A time=00:17:17.57 bitrate=N/A speed=18.1x    frame=25114 fps=434 q=-0.0 size=N/A time=00:17:27.46 bitrate=N/A speed=18.1x    frame=25380 fps=435 q=-0.0 size=N/A time=00:17:38.55 bitrate=N/A speed=18.1x    frame=25634 fps=435 q=-0.0 size=N/A time=00:17:49.15 bitrate=N/A speed=18.2x    frame=25869 fps=436 q=-0.0 size=N/A time=00:17:58.95 bitrate=N/A speed=18.2x    frame=26119 fps=436 q=-0.0 size=N/A time=00:18:09.37 bitrate=N/A speed=18.2x    frame=26352 fps=436 q=-0.0 size=N/A time=00:18:19.09 bitrate=N/A speed=18.2x    frame=26577 fps=436 q=-0.0 size=N/A time=00:18:28.48 bitrate=N/A speed=18.2x    frame=26764 fps=436 q=-0.0 size=N/A time=00:18:36.28 bitrate=N/A speed=18.2x    frame=26950 fps=435 q=-0.0 size=N/A time=00:18:44.03 bitrate=N/A speed=18.1x    frame=27153 fps=435 q=-0.0 size=N/A time=00:18:52.50 bitrate=N/A speed=18.1x    frame=27398 fps=435 q=-0.0 size=N/A time=00:19:02.72 bitrate=N/A speed=18.1x    frame=27622 fps=435 q=-0.0 size=N/A time=00:19:12.10 bitrate=N/A speed=18.1x    frame=27852 fps=435 q=-0.0 size=N/A time=00:19:21.66 bitrate=N/A speed=18.1x    frame=28086 fps=435 q=-0.0 size=N/A time=00:19:31.42 bitrate=N/A speed=18.2x    frame=28279 fps=435 q=-0.0 size=N/A time=00:19:39.46 bitrate=N/A speed=18.1x    frame=28512 fps=435 q=-0.0 size=N/A time=00:19:49.18 bitrate=N/A speed=18.1x    frame=28743 fps=435 q=-0.0 size=N/A time=00:19:58.82 bitrate=N/A speed=18.1x    frame=28997 fps=435 q=-0.0 size=N/A time=00:20:09.41 bitrate=N/A speed=18.2x    frame=29237 fps=436 q=-0.0 size=N/A time=00:20:19.42 bitrate=N/A speed=18.2x    frame=29500 fps=436 q=-0.0 size=N/A time=00:20:30.39 bitrate=N/A speed=18.2x    frame=29705 fps=436 q=-0.0 size=N/A time=00:20:38.94 bitrate=N/A speed=18.2x    frame=29895 fps=435 q=-0.0 size=N/A time=00:20:46.87 bitrate=N/A speed=18.2x    frame=30119 fps=435 q=-0.0 size=N/A time=00:20:56.21 bitrate=N/A speed=18.2x    frame=30327 fps=435 q=-0.0 size=N/A time=00:21:04.88 bitrate=N/A speed=18.2x    frame=30573 fps=436 q=-0.0 size=N/A time=00:21:15.14 bitrate=N/A speed=18.2x    frame=30750 fps=435 q=-0.0 size=N/A time=00:21:22.53 bitrate=N/A speed=18.1x    frame=30942 fps=434 q=-0.0 size=N/A time=00:21:30.53 bitrate=N/A speed=18.1x    frame=31137 fps=434 q=-0.0 size=N/A time=00:21:38.67 bitrate=N/A speed=18.1x    frame=31352 fps=434 q=-0.0 size=N/A time=00:21:47.63 bitrate=N/A speed=18.1x    frame=31552 fps=434 q=-0.0 size=N/A time=00:21:55.98 bitrate=N/A speed=18.1x    frame=31809 fps=434 q=-0.0 size=N/A time=00:22:06.70 bitrate=N/A speed=18.1x    frame=31968 fps=433 q=-0.0 size=N/A time=00:22:13.33 bitrate=N/A speed=18.1x    frame=32123 fps=432 q=-0.0 size=N/A time=00:22:19.79 bitrate=N/A speed=  18x    frame=32266 fps=431 q=-0.0 size=N/A time=00:22:25.76 bitrate=N/A speed=  18x    frame=32408 fps=430 q=-0.0 size=N/A time=00:22:31.68 bitrate=N/A speed=17.9x    frame=32568 fps=429 q=-0.0 size=N/A time=00:22:38.35 bitrate=N/A speed=17.9x    frame=32726 fps=428 q=-0.0 size=N/A time=00:22:44.94 bitrate=N/A speed=17.9x    frame=32909 fps=428 q=-0.0 size=N/A time=00:22:52.57 bitrate=N/A speed=17.8x    frame=33091 fps=427 q=-0.0 size=N/A time=00:23:00.17 bitrate=N/A speed=17.8x    frame=33265 fps=427 q=-0.0 size=N/A time=00:23:07.42 bitrate=N/A speed=17.8x    frame=33427 fps=426 q=-0.0 size=N/A time=00:23:14.18 bitrate=N/A speed=17.8x    frame=33594 fps=425 q=-0.0 size=N/A time=00:23:21.14 bitrate=N/A speed=17.7x    frame=33783 fps=425 q=-0.0 size=N/A time=00:23:29.03 bitrate=N/A speed=17.7x    frame=33996 fps=425 q=-0.0 size=N/A time=00:23:37.91 bitrate=N/A speed=17.7x    frame=34192 fps=425 q=-0.0 size=N/A time=00:23:46.09 bitrate=N/A speed=17.7x    [Parsed_psnr_10 @ 000002138d9d3680] PSNR y:46.196500 u:49.573930 v:49.359216 average:47.038786 min:36.869933 max:inf
[out#0/null @ 000002138d9e0180] video:14696KiB audio:267492KiB subtitle:0KiB other streams:0KiB global headers:0KiB muxing overhead: unknown
frame=34202 fps=425 q=-0.0 Lsize=N/A time=00:23:46.50 bitrate=N/A speed=17.7x    
